<svg id="indihu-exebition-logo-h" xmlns="http://www.w3.org/2000/svg" width="226.717" height="77.18" viewBox="0 0 226.717 77.18">
  <path id="Path_1" data-name="Path 1" d="M38.59,0A38.59,38.59,0,1,0,77.18,38.59,38.591,38.591,0,0,0,38.59,0Zm24.6,53.14a2.182,2.182,0,0,1-.292-.031A26.767,26.767,0,0,1,12.15,41.977c-.421.146-.846.279-1.266.4-.478.137-.952.288-1.426.416a1.8,1.8,0,0,1-2.276-1.621v-.044a1.805,1.805,0,0,1,1.289-1.86c.859-.239,1.709-.518,2.555-.819.443-.159.881-.323,1.324-.5A26.7,26.7,0,0,1,20.989,21.4,49.686,49.686,0,0,0,7.935,32.324c2.931-8.232,7.833-15.777,15.812-19.859C31.124,8.679,39.9,8.227,47.858,9.8c4.782.939,12.9,3.423,11.07,7.541-1.683,3.8-12.531-2.661-26.524-.1a24.94,24.94,0,0,0-18,19.842c2.736-1.235,5.393-2.675,7.966-4.06.983-.536,1.966-1.072,2.962-1.594a46.117,46.117,0,0,1,28.2-5.176A51.277,51.277,0,0,1,60.367,28.1a26.323,26.323,0,0,1,2.258,5.07l-3.75-1.506a27.151,27.151,0,0,0-4.893-1.5,31.029,31.029,0,0,0-3.387-.487c.257.266.509.54.757.832a16.375,16.375,0,1,1-25.023,21.13,16.263,16.263,0,0,1-2.621-4.326A1.7,1.7,0,0,1,26.851,46a12.8,12.8,0,0,0,1.758,3.038,12.97,12.97,0,1,0,20.174-16.3,12.737,12.737,0,0,0-3.91-3.139A42.006,42.006,0,0,0,39,30.38a39.161,39.161,0,0,0-10.366,3.728c-1.275.664-2.555,1.355-3.8,2.032-2.351,1.28-4.787,2.6-7.333,3.773-1.116.518-2.272.992-3.436,1.417A24.86,24.86,0,0,0,61.2,52.281a2.8,2.8,0,1,1,4.809-1.939A2.818,2.818,0,0,1,63.192,53.14ZM32.036,41.251a6.872,6.872,0,1,1,6.872,6.872A6.873,6.873,0,0,1,32.036,41.251Z" fill="#fff"/>
  <g id="Group_1" data-name="Group 1" transform="translate(95.237 11.854)">
    <path id="Path_2" data-name="Path 2" d="M219.322,46.838H215.08V26.77h4.242Z" transform="translate(-215.08 -26.77)" fill="#fff"/>
    <path id="Path_3" data-name="Path 3" d="M249.356,46.838H245.69L236.958,34.2h-.146V46.838H232.57V26.77h3.724l8.661,12.624h.177V26.77h4.224Z" transform="translate(-224.825 -26.77)" fill="#fff"/>
    <path id="Path_4" data-name="Path 4" d="M278.38,46.838V26.77h7.173a10.7,10.7,0,0,1,5.221,1.2,8.149,8.149,0,0,1,3.365,3.445,11.436,11.436,0,0,1,1.178,5.371,11.457,11.457,0,0,1-1.182,5.389,8.17,8.17,0,0,1-3.383,3.458,10.807,10.807,0,0,1-5.256,1.2Zm6.939-3.635a5.676,5.676,0,0,0,4.3-1.528q1.468-1.528,1.466-4.888,0-3.341-1.466-4.862a5.681,5.681,0,0,0-4.286-1.519h-2.706V43.2Z" transform="translate(-250.351 -26.77)" fill="#fff"/>
    <path id="Path_5" data-name="Path 5" d="M327.952,46.838H323.71V26.77h4.242Z" transform="translate(-275.609 -26.77)" fill="#fff"/>
    <path id="Path_6" data-name="Path 6" d="M341.19,26.77h4.242v8.28h8.612V26.77h4.233V46.842h-4.233V38.548h-8.612v8.289H341.19Z" transform="translate(-285.349 -26.77)" fill="#fff"/>
    <path id="Path_7" data-name="Path 7" d="M404.33,26.77V39.8a6.826,6.826,0,0,1-3.95,6.407,10.878,10.878,0,0,1-8.741,0,6.961,6.961,0,0,1-2.909-2.564A7.064,7.064,0,0,1,387.69,39.8V26.77h4.242V39.443a3.851,3.851,0,0,0,1.116,2.834,4.49,4.49,0,0,0,5.925,0,3.851,3.851,0,0,0,1.111-2.834V26.77Z" transform="translate(-311.259 -26.77)" fill="#fff"/>
    <path id="Path_8" data-name="Path 8" d="M215.08,101.55H228.6v3.5h-9.281v4.782h8.586v3.5h-8.586v4.791h9.321v3.5H215.08Z" transform="translate(-215.08 -68.438)" fill="#fff"/>
    <path id="Path_9" data-name="Path 9" d="M258.09,118.15l2.834-5.26h4.282l-4.362,7.528,4.477,7.528h-4.264l-2.971-5.2-2.922,5.2H250.85l4.468-7.528L251,112.89h4.313Z" transform="translate(-235.011 -74.756)" fill="#fff"/>
    <path id="Path_10" data-name="Path 10" d="M293.016,121.622H288.84V101.55H292.9v7.674h.177a4.371,4.371,0,0,1,1.652-2.094,5.575,5.575,0,0,1,6.629.748,5.776,5.776,0,0,1,1.421,4.153v9.582H298.6v-8.838a3.058,3.058,0,0,0-.7-2.165,2.549,2.549,0,0,0-1.984-.775,2.806,2.806,0,0,0-2.081.81,3.1,3.1,0,0,0-.819,2.267Z" transform="translate(-256.179 -68.438)" fill="#fff"/>
    <path id="Path_11" data-name="Path 11" d="M328.059,102.57a1.982,1.982,0,0,1-.669-1.5,1.949,1.949,0,0,1,.669-1.488,2.372,2.372,0,0,1,3.188,0,2,2,0,0,1,0,2.984,2.256,2.256,0,0,1-1.6.624A2.289,2.289,0,0,1,328.059,102.57Zm-.509,2.559h4.176V120.18h-4.176Z" transform="translate(-277.659 -67)" fill="#fff"/>
    <path id="Path_12" data-name="Path 12" d="M344.874,101.55h4.176V109.1h.128a5.721,5.721,0,0,1,.8-1.244,4.194,4.194,0,0,1,1.373-1.054,4.691,4.691,0,0,1,2.108-.425,5.657,5.657,0,0,1,3.038.859,6.034,6.034,0,0,1,2.218,2.577,11.491,11.491,0,0,1,.022,8.555,6.1,6.1,0,0,1-2.2,2.617,5.626,5.626,0,0,1-3.1.886,4.764,4.764,0,0,1-2.063-.4A4.179,4.179,0,0,1,350,120.449a5.408,5.408,0,0,1-.828-1.24h-.186v2.409H344.87V101.55Zm4.915,15.772a2.666,2.666,0,0,0,2.338,1.222,2.634,2.634,0,0,0,2.351-1.24,5.771,5.771,0,0,0,.815-3.21,5.652,5.652,0,0,0-.81-3.179,2.65,2.65,0,0,0-2.356-1.222,2.681,2.681,0,0,0-2.342,1.191,5.553,5.553,0,0,0-.824,3.21A5.662,5.662,0,0,0,349.79,117.322Z" transform="translate(-287.399 -68.438)" fill="#fff"/>
    <path id="Path_13" data-name="Path 13" d="M384.609,102.57a1.982,1.982,0,0,1-.669-1.5,1.949,1.949,0,0,1,.669-1.488,2.372,2.372,0,0,1,3.188,0,2,2,0,0,1,0,2.984,2.256,2.256,0,0,1-1.6.624A2.281,2.281,0,0,1,384.609,102.57Zm-.509,2.559h4.176V120.18H384.1Z" transform="translate(-309.169 -67)" fill="#fff"/>
    <path id="Path_14" data-name="Path 14" d="M407.934,111.495H405.1v7.293a1.4,1.4,0,0,0,.394,1.165,1.612,1.612,0,0,0,1.018.306,3.31,3.31,0,0,0,.589-.053c.195-.035.345-.062.452-.084l.655,3.108c-.208.066-.5.142-.881.23a7.58,7.58,0,0,1-1.382.164,5.338,5.338,0,0,1-3.649-.983,3.923,3.923,0,0,1-1.368-3.3V111.5H398.87v-3.135h2.059v-3.6H405.1v3.6h2.834v3.131Z" transform="translate(-317.488 -70.226)" fill="#fff"/>
    <path id="Path_15" data-name="Path 15" d="M425.779,102.57a1.982,1.982,0,0,1-.669-1.5,1.949,1.949,0,0,1,.669-1.488,2.372,2.372,0,0,1,3.188,0,2,2,0,0,1,0,2.984,2.347,2.347,0,0,1-3.188,0Zm-.509,2.559h4.176V120.18h-4.176Z" transform="translate(-332.109 -67)" fill="#fff"/>
    <path id="Path_16" data-name="Path 16" d="M444.507,127.014a6.614,6.614,0,0,1-2.564-2.723,9.627,9.627,0,0,1,0-8.143,6.614,6.614,0,0,1,2.564-2.723,8.476,8.476,0,0,1,7.891,0,6.614,6.614,0,0,1,2.564,2.723,9.627,9.627,0,0,1,0,8.143,6.614,6.614,0,0,1-2.564,2.723,8.476,8.476,0,0,1-7.891,0Zm6.31-3.551a7.089,7.089,0,0,0,0-6.531,2.589,2.589,0,0,0-2.347-1.3,2.626,2.626,0,0,0-2.382,1.3,7.054,7.054,0,0,0,0,6.531,2.623,2.623,0,0,0,2.382,1.293A2.586,2.586,0,0,0,450.817,123.462Z" transform="translate(-340.985 -74.511)" fill="#fff"/>
    <path id="Path_17" data-name="Path 17" d="M484.836,127.7H480.66V112.645h3.981V115.3h.177a4.277,4.277,0,0,1,1.683-2.081,5.067,5.067,0,0,1,2.847-.77,4.93,4.93,0,0,1,3.773,1.514,5.818,5.818,0,0,1,1.421,4.149V127.7h-4.176v-8.838a3.063,3.063,0,0,0-.7-2.161,2.548,2.548,0,0,0-1.971-.779,2.745,2.745,0,0,0-2.055.81,3.127,3.127,0,0,0-.8,2.267v8.7Z" transform="translate(-363.062 -74.511)" fill="#fff"/>
  </g>
</svg>