<?xml version="1.0" encoding="utf-8"?>
<!-- Generator: Adobe Illustrator 28.2.0, SVG Export Plug-In . SVG Version: 6.00 Build 0)  -->
<svg version="1.1" id="Vrstva_1" xmlns="http://www.w3.org/2000/svg" xmlns:xlink="http://www.w3.org/1999/xlink" x="0px" y="0px"
	 viewBox="0 0 818 536.8" style="enable-background:new 0 0 818 536.8;" xml:space="preserve">
<style type="text/css">
	.st0{fill:#FFFFFF;}
</style>
<g>
	<path class="st0" d="M816.68,436.42c-13.91-8.59-35.53-18.85-59.52-18.85c-34.08,0-62.42,20.6-76.29,32.89
		c-0.44,0.39-1.11,0.41-1.59,0.04c-2.01-1.55-4.08-3.05-6.15-4.47c-13.88-9.53-35.56-20.9-60.03-20.9h-2.77v16.43h2.77
		c20.26,0,38.77,9.79,50.73,18.01c1.83,1.26,3.65,2.59,5.43,3.94c3.08,2.38,6.93,3.69,10.82,3.69c4.31,0,8.48-1.58,11.72-4.45
		c9.75-8.64,35.65-28.75,65.38-28.75c22.47,0,43.14,10.89,56.48,20.04l4.35,2.96v-19.79L816.68,436.42z"/>
	<path class="st0" d="M675.59,413.96c-5.57-4.28-16.79-10.09-29.37-13.45v8.07c10.7,3.13,19.97,7.94,24.63,11.54
		c1.93,1.49,4.23,2.22,6.53,2.22c2.54,0,5.07-0.9,7.09-2.68c6.8-6.02,25.29-14.99,48.39-14.99v-7.78
		c-23.65,0-44.35,8.78-53.55,16.94C678.28,414.78,676.71,414.83,675.59,413.96z"/>
	<path class="st0" d="M335.99,487.59h274.51v-22.65H338.48v-24.43h132.01v-9.33H338.48v-206.9c2.01-60.91-12.6-107.75-43.41-139.22
		c-38.55-39.41-88.67-39.54-90.78-39.5l-2.8,0.01l0.24,22.95l2.92-0.32c1.94,0,43.06,0.69,74.41,32.88
		c26.2,26.91,38.59,68.14,36.77,122.65v207.43h-69.46v0.01c-2.29,0-4.16-1.86-4.16-4.16v-82.11c10.67-9.89,19.74-21.64,26.67-34.89
		c0.58,0.09,1.18,0.13,1.79,0.13c7.37,0,13.35-5.97,13.35-13.35c0-7.38-5.97-13.33-13.35-13.33s-13.35,5.99-13.35,13.37
		c0,3.38,1.27,6.49,3.37,8.85c-20.53,39.41-61.53,64.52-106.33,64.52c-65.64,0-119.15-53.08-119.85-118.57
		c5.95-2.16,11.59-4.5,16.87-6.94c12.61-5.8,24.75-12.41,35.45-18.21l1.22-0.66c5.62-3.02,11.39-6.15,17.11-9.11
		c16.64-8.63,32.92-14.46,49.76-17.88c9.51-1.93,18.86-3.19,27.99-3.76c0.01,0,0.01,0,0.02,0c6.99,3.68,13.15,8.66,18.31,14.8
		c11.16,13.26,16.22,30.75,13.88,47.98c-2.35,17.45-11.69,32.58-26.28,42.62c-26.77,18.4-63.44,12.65-83.49-13.14
		c-3.44-4.42-6.25-9.28-8.35-14.43c-1.41-3.42-4.75-5.55-8.36-5.55c-0.85,0-1.69,0.11-2.54,0.36c-2.48,0.7-4.58,2.44-5.72,4.78
		c-1.13,2.34-1.22,5.06-0.24,7.46c3.13,7.61,7.42,14.69,12.81,21.09c14.36,17.07,35.45,27.4,57.83,28.34
		c1.14,0.04,2.31,0.08,3.46,0.08c21.37,0,41.36-8.31,56.59-23.62c28.99-29.13,30.84-76.53,4.23-107.94
		c-0.64-0.77-1.33-1.53-1.98-2.26c4.69,0.5,9.3,1.21,13.8,2.11c7.26,1.42,14.92,3.77,23.44,7.18l19.94,8.02l-0.61-1.89
		c-2.76-8.52-6.44-16.8-10.98-24.62l-0.17-0.32l-0.33-0.11c-8.2-2.71-23.4-7.49-33.14-8.96c-25.32-3.85-52.86-2.49-81.89,4.11
		c-17.81,4.07-35.72,10.94-54.71,20.97c-4.72,2.48-9.38,5.02-14.03,7.54l-0.29,0.15c-12.19,6.61-24.75,13.41-37.71,19.29
		c7.26-40.37,34.8-73.82,71.66-89.32c41.12-11.48,77.71-5.02,104.26-0.32c21.61,3.83,35.87,6.34,40.32-3.69
		c2.01-4.5,1.91-8.92-0.29-13.14c-7.88-15.16-40.69-23.09-54.43-25.8c-42.87-8.45-84.6-3.84-117.49,13.03
		c-34.64,17.73-60.59,50.29-77.14,96.8L0,215.87l6.41-7.35c18.75-21.51,37.46-37.19,55.73-48.46
		c-19.09,19.5-32.04,44.98-35.77,73.36c-2.24,0.89-4.5,1.74-6.77,2.54c-4.05,1.46-8.19,2.8-12.28,3.97
		c-4.32,1.23-7.16,5.31-6.86,9.79c-0.03,0.08,0,0.17,0.01,0.33c0.18,2.9,1.64,5.53,4.03,7.23c1.64,1.16,3.57,1.75,5.53,1.75
		c0.85,0,1.72-0.11,2.55-0.36c1.65-0.44,3.32-0.95,4.98-1.45l1.92-0.57c1.97-0.6,3.91-1.21,5.83-1.86
		c2.39,69.14,59.34,124.64,129.05,124.64c28.95,0,56.4-9.73,78.52-26.66v74.25c0,7.44,6.05,13.49,13.49,13.49h69.46v26.93
		C315.84,478.56,324.88,487.59,335.99,487.59z M86.37,268.58c3.97-1.11,8.22,0.85,9.79,4.66c2.14,5.22,4.96,10.13,8.48,14.64
		c20.15,25.9,57.7,31.92,84.75,13.33c18.33-12.61,27.63-32.8,27.23-52.98c0.4,20.18-8.9,40.38-27.23,52.99
		c-27.05,18.58-64.61,12.57-84.75-13.33c-3.52-4.51-6.34-9.42-8.48-14.64c-1.56-3.81-5.82-5.77-9.79-4.66
		c-3.53,0.98-5.82,4.12-5.97,7.55C80.54,272.71,82.84,269.57,86.37,268.58z M232.92,249.06c-0.11-18.01-6.26-36.02-18.56-50.55
		c-0.57-0.67-1.14-1.33-1.74-1.98c-0.32-0.36-0.64-0.71-0.97-1.04c0,0,0.01,0,0.01,0c0.33,0.33,0.64,0.68,0.95,1.03
		c0.6,0.65,1.17,1.31,1.74,1.98C226.66,213.02,232.82,231.05,232.92,249.06z"/>
	<path class="st0" d="M331.26,65.81c0.97-0.89,1.75-1.88,2.39-2.95h33.58c1.26,0,2.3,1.04,2.3,2.3v21.79h-33.61v9.33h33.61v297.85
		c0,8.47,6.86,15.33,15.33,15.33h209.81c8.44,0,15.33-6.86,15.33-15.33V375.2h114.16c1.86,0,3.51-0.95,4.44-2.53
		c0.86-1.45,0.95-3.23,0.25-4.75l-25.19-40.71c-1.7-2.96-4.87-4.8-8.29-4.8H610v-20.72h75.18c11.22,0,20.36-9.14,20.36-20.36V134.41
		c0-11.24-9.14-20.37-20.37-20.37h-29.76v-13.6c0-7.44-6.05-13.49-13.49-13.49H382.56V65.17c0-8.44-6.89-15.33-15.33-15.33h-33.19
		c-0.52-1.03-1.21-2-2.02-2.89c-5-5.41-13.43-5.76-18.86-0.76c-5.43,5-5.76,13.46-0.76,18.86
		C317.39,70.48,325.83,70.81,331.26,65.81z M695.64,331.82l21.15,34.13H427.37l21.01-33.89l0.14-0.24c0.05-0.09,0.17-0.15,0.27-0.15
		h246.58C695.48,331.66,695.59,331.73,695.64,331.82z M696.27,134.41v146.91c0,6.13-4.98,11.11-11.11,11.11H459.7
		c-6.13,0-11.11-4.98-11.11-11.11V134.4c0-6.13,4.98-11.11,11.11-11.11v0.01h225.47C691.29,123.3,696.27,128.29,696.27,134.41z
		 M641.91,96.28c2.3,0,4.16,1.87,4.16,4.16v13.6H459.7c-11.24,0-20.37,9.14-20.37,20.37v146.89c0,11.24,9.14,20.37,20.37,20.37
		h137.28v20.72H448.79c-3.47,0-6.66,1.88-8.3,4.83l-24.91,40.18l-0.27,0.51c-0.71,1.53-0.61,3.29,0.24,4.74
		c0.93,1.59,2.59,2.54,4.44,2.54h176.99v18.93c0,1.28-1.04,2.3-2.3,2.3H384.86c-1.26,0-2.3-1.02-2.3-2.3V96.28H641.91z"/>
	<path class="st0" d="M490.33,276.02h164.22c11.22,0,20.36-9.14,20.36-20.37v-94.78c0-11.24-9.14-20.37-20.37-20.37H490.33
		c-11.24,0-20.37,9.14-20.37,20.37v94.78C469.95,266.88,479.09,276.02,490.33,276.02z M479.22,160.86c0-6.13,4.98-11.11,11.11-11.11
		h164.21c6.13,0,11.11,4.98,11.11,11.11v94.78c0,6.13-4.98,11.11-11.11,11.11H490.33c-6.13,0-11.11-4.98-11.11-11.11V160.86z"/>
	<path class="st0" d="M759.3,157.79v246.77h13.03V157.79c0-8.45-6.89-15.33-15.34-15.33h-24.85v13.03h24.85
		C758.26,155.49,759.3,156.53,759.3,157.79z"/>
	<path class="st0" d="M722.35,508.2c0,2.3-1.87,4.16-4.16,4.16H469.86c-1.93-4.99-6.77-8.53-12.44-8.53
		c-7.37,0-13.35,5.98-13.35,13.35c0,7.37,5.98,13.35,13.35,13.35c5.78,0,10.69-3.69,12.55-8.83H718.2c7.44,0,13.49-6.05,13.49-13.49
		v-40.22h-9.33V508.2z"/>
	
		<ellipse transform="matrix(0.9871 -0.1602 0.1602 0.9871 -38.1032 27.9591)" class="st0" cx="154.37" cy="250.32" rx="33.15" ry="33.15"/>
	<path class="st0" d="M136.48,43.14c0.29-0.27,28.67-27.63,62.5-27.63c24.98,0,47.18,13.71,58.2,21.89
		c6.56,4.84,15.82,4.56,22.04-0.72c5.63-4.83,14.78-11.81,26.35-17.71l1.58-0.81V1.04l-4.12,1.91c-14.9,6.93-26.65,15.72-33.9,21.9
		c-0.75,0.65-1.92,0.67-2.73,0.08C253.86,15.62,228.4,0,198.97,0c-28.34,0-52.16,14.92-64.77,24.72v20.18l0.23,0.23L136.48,43.14z"
		/>
	<path class="st0" d="M346.59,528.28c-5.66-4.36-17.06-10.26-29.83-13.66v8.2c10.87,3.16,20.29,8.07,25.01,11.72
		c1.96,1.51,4.3,2.26,6.63,2.26c2.58,0,5.16-0.92,7.19-2.72c6.9-6.11,25.69-15.21,49.14-15.21v-7.89
		c-24.01-0.01-45.01,8.91-54.36,17.2C349.32,529.11,347.72,529.16,346.59,528.28z"/>
	
		<ellipse transform="matrix(0.9239 -0.3827 0.3827 0.9239 -41.6093 235.551)" class="st0" cx="571.29" cy="222.37" rx="24.09" ry="24.09"/>
	<path class="st0" d="M511.15,216.51h32.04c2.71-13.03,14.28-22.85,28.11-22.85c4.43,0,8.62,1.01,12.37,2.8v-14.71
		c0-3.09-2.5-5.59-5.59-5.59h-66.92c-3.09,0-5.59,2.5-5.59,5.59v29.17C505.55,214,508.06,216.51,511.15,216.51z"/>
	<path class="st0" d="M594.07,239.82c1.08,1.37,2.72,2.26,4.6,2.26h36.73c3.24,0,5.87-2.63,5.87-5.87v-36.73
		c0-3.23-2.63-5.87-5.87-5.87h-36.73c-3.24,0-5.87,2.63-5.87,5.87v3.89c4.48,5.07,7.21,11.72,7.21,19
		C600.01,228.93,597.79,234.98,594.07,239.82z"/>
</g>
</svg>
